{"title":"Love Anthem For World Peace (STR) Version 1 ","uid":6917513,"size":11247056,"categoryP":"video","categoryS":"music_videos","magnet":"?xt=urn:btih:cef6e97be913b48859c7e5253cfcbb3554bf12d4&amp;dn=Love+Anthem+For+World+Peace+%28STR%29+Version+1+&amp;tr=udp%3A%2F%2Ftracker.openbittorrent.com%3A80&amp;tr=udp%3A%2F%2Fopen.demonii.com%3A1337&amp;tr=udp%3A%2F%2Ftracker.coppersurfer.tk%3A6969&amp;tr=udp%3A%2F%2Fexodus.desync.com%3A6969","seeders":0,"leechers":1,"uploader":"pirate0610","files":-1,"time":1325083624,"description":"Love Anthem For World Peace (STR) Version 1 \n\n\nVideo\n\n Format : AVC\n Format/Info : Advanced Video Codec\n Format profile : &lt;a class=&quot;__cf_email__&quot; href=&quot;/cdn-cgi/l/email-protection&quot; data-cfemail=&quot;83c1e2f0e6efeaede6c3cfb0adb3&quot;&gt;[email&amp;#160;protected]&lt;/a&gt;&lt;script cf-hash='f9e31' type=&quot;text/javascript&quot;&gt;\n/* &lt;![CDATA[ */!function(){try{var t=&quot;currentScript&quot;in document?document.currentScript:function(){for(var t=document.getElementsByTagName(&quot;script&quot;),e=t.length;e--;)if(t[e].getAttribute(&quot;cf-hash&quot;))return t[e]}();if(t&amp;&amp;t.previousSibling){var e,r,n,i,c=t.previousSibling,a=c.getAttribute(&quot;data-cfemail&quot;);if(a){for(e=&quot;&quot;,r=parseInt(a.substr(0,2),16),n=2;a.length-n;n+=2)i=parseInt(a.substr(n,2),16)^r,e+=String.fromCharCode(i);e=document.createTextNode(e),c.parentNode.replaceChild(e,c)}}}catch(u){}}();/* ]]&gt; */&lt;/script&gt;\n Format settings, CABAC : No\n Format settings, ReFrames : 1 frame\n Codec ID : avc1\n Codec ID/Info : Advanced Video Coding\n Duration : 2mn 41s\n Bit rate mode : Variable\n Bit rate : 463 Kbps\n Maximum bit rate : 2 279 Kbps\n Width : 640 pixels\n Height : 360 pixels\n Display aspect ratio : 16:9\n Frame rate mode : Constant\n Frame rate : 25.000 fps\n Color space : YUV\n Chroma subsampling : 4:2:0\n Bit depth : 8 bits\n Scan type : Progressive\n Bits/(Pixel*Frame) : 0.080\n Stream size : 8.91 MiB (83%)\n\nAudio\n\n Format : AAC\n Format/Info : Advanced Audio Codec\n Format version : Version 4\n Format profile : LC\n Format settings, SBR : No\n Codec ID : 40\n Duration : 2mn 41s\n Bit rate mode : Variable\n Bit rate : 91.7 Kbps\n Maximum bit rate : 163 Kbps\n Channel(s) : 2 channels\n Channel positions : Front: L R\n Sampling rate : 44.1 KHz\n Stream size : 1.77 MiB (16%)\n\nScreens\n &lt;a href=&quot;\nhttp://www.shotpix.com/images/76020371220789829870.jpg&quot; rel=&quot;nofollow&quot; target=&quot;_NEW&quot;&gt;\nhttp://www.shotpix.com/images/76020371220789829870.jpg&lt;/a&gt;\n &lt;a href=&quot;\nhttp://www.shotpix.com/images/73810000356939011579.jpg&quot; rel=&quot;nofollow&quot; target=&quot;_NEW&quot;&gt;\nhttp://www.shotpix.com/images/73810000356939011579.jpg&lt;/a&gt;\n &lt;a href=&quot;\nhttp://www.shotpix.com/images/52343509081074176320.jpg&quot; rel=&quot;nofollow&quot; target=&quot;_NEW&quot;&gt;\nhttp://www.shotpix.com/images/52343509081074176320.jpg&lt;/a&gt;\n &lt;a href=&quot;\nhttp://www.shotpix.com/images/46916200715119035756.jpg&quot; rel=&quot;nofollow&quot; target=&quot;_NEW&quot;&gt;\nhttp://www.shotpix.com/images/46916200715119035756.jpg&lt;/a&gt;\n &lt;a href=&quot;\nhttp://www.shotpix.com/images/07554295707614420615.jpg&quot; rel=&quot;nofollow&quot; target=&quot;_NEW&quot;&gt;\nhttp://www.shotpix.com/images/07554295707614420615.jpg&lt;/a&gt;","torrent":{"xt":"urn:btih:cef6e97be913b48859c7e5253cfcbb3554bf12d4","amp;dn":"Love+Anthem+For+World+Peace+%28STR%29+Version+1+","amp;tr":["udp%3A%2F%2Ftracker.openbittorrent.com%3A80","udp%3A%2F%2Fopen.demonii.com%3A1337","udp%3A%2F%2Ftracker.coppersurfer.tk%3A6969","udp%3A%2F%2Fexodus.desync.com%3A6969"],"infoHash":"cef6e97be913b48859c7e5253cfcbb3554bf12d4","infoHashBuffer":{"type":"Buffer","data":[206,246,233,123,233,19,180,136,89,199,229,37,60,252,187,53,84,191,18,212]},"announce":[],"urlList":[]}}